{"title":"Star Vehicle [2010] DVDRip XviD 550 MB DAYN-D3MT","uid":6311465,"size":574618814,"categoryP":"video","categoryS":"movies","magnet":"?xt=urn:btih:c171a7ac8c1b4c88ae81c856fef516c01d1e9f73&amp;dn=Star+Vehicle+%5B2010%5D+DVDRip+XviD+550+MB+DAYN-D3MT&amp;tr=udp%3A%2F%2Ftracker.openbittorrent.com%3A80&amp;tr=udp%3A%2F%2Fopen.demonii.com%3A1337&amp;tr=udp%3A%2F%2Ftracker.coppersurfer.tk%3A6969&amp;tr=udp%3A%2F%2Fexodus.desync.com%3A6969","seeders":0,"leechers":1,"uploader":"arihantkatariya","files":2,"time":1302554472,"description":"[quote]Format                           : AVI\nFormat/Info                      : Audio Video Interleave\nFile size                        : 534 MiB\nDuration                         : 1h 9mn\nOverall bit rate                 : 1 076 Kbps\nWriting application              : Lavf52.39.1\n\nVideo\nID                               : 0\nFormat                           : MPEG-4 Visual\nFormat profile                   : Advanced Simple@L1\nFormat settings, BVOP            : 2\nFormat settings, QPel            : No\nFormat settings, GMC             : No warppoints\nFormat settings, Matrix          : Default (H.263)\nCodec ID                         : DX50\nCodec ID/Hint                    : DivX 5\nDuration                         : 1h 9mn\nBit rate                         : 998 Kbps\nWidth                            : 560 pixels\nHeight                           : 320 pixels\nDisplay aspect ratio             : 16:9\nFrame rate                       : 29.970 fps\nColor space                      : YUV\nChroma subsampling               : 4:2:0\nBit depth                        : 8 bits\nScan type                        : Progressive\nCompression mode                 : Lossy\nBits/(Pixel*Frame)               : 0.186\nStream size                      : 495 MiB (93%)\nWriting library                  : Lavc52.37.0\n\nAudio\nID                               : 1\nFormat                           : MPEG Audio\nFormat version                   : Version 1\nFormat profile                   : Layer 2\nCodec ID                         : 50\nDuration                         : 1h 9mn\nBit rate mode                    : Constant\nBit rate                         : 64.0 Kbps\nChannel(s)                       : 2 channels\nSampling rate                    : 48.0 KHz\nCompression mode                 : Lossy\nStream size                      : 31.7 MiB (6%)\nAlignment                        : Aligned on interleaves\nInterleave, duration             : 24 ms (0.72 video frame)[/quote]","torrent":{"xt":"urn:btih:c171a7ac8c1b4c88ae81c856fef516c01d1e9f73","amp;dn":"Star+Vehicle+%5B2010%5D+DVDRip+XviD+550+MB+DAYN-D3MT","amp;tr":["udp%3A%2F%2Ftracker.openbittorrent.com%3A80","udp%3A%2F%2Fopen.demonii.com%3A1337","udp%3A%2F%2Ftracker.coppersurfer.tk%3A6969","udp%3A%2F%2Fexodus.desync.com%3A6969"],"infoHash":"c171a7ac8c1b4c88ae81c856fef516c01d1e9f73","infoHashBuffer":{"type":"Buffer","data":[193,113,167,172,140,27,76,136,174,129,200,86,254,245,22,192,29,30,159,115]},"announce":[],"urlList":[]}}